# xmcd
# Track frame offsets:
# 150
# 17643
# 33998
# 53263
# 65965
# 84113
# 104508
# 123070
# 148465
# 167758
# 184968
# 199970
# 219238
# 238720
# 255078
# 272380
# 293880
# 315498
#
# Disc length: 4543 seconds
# Revision: 3
# Processed by: cddbd v1.5.2PL0 Copyright (c) Steve Scherf et al.
# Submitted via: VisiTrax 2.10.3.257 - For more info visit www.synapsa.com
#
DISCID=f911bd12
DTITLE=Box Of Frogs - Box Of Frogs-Strange Land
DYEAR=1996
DGENRE=Rock
TTITLE0=Back Where I Started
TTITLE1=Harder
TTITLE2=Another Wasted Day
TTITLE3=Love Inside You
TTITLE4=The Edge
TTITLE5=Two Steps Ahead
TTITLE6=Into The Dark
TTITLE7=Just A Boy Again
TTITLE8=Poor Boy
TTITLE9=Get It While You Can
TTITLE10=You Mix Me Up
TTITLE11=Average
TTITLE12=House On Fire
TTITLE13=Hanging From The Wreckage
TTITLE14=Heart Full Of Soul
TTITLE15=Asylum
TTITLE16=Strange Land
TTITLE17=Trouble
EXTD=ID3G: 17 corrected year 1996
EXTT0=
EXTT1=
EXTT2=
EXTT3=
EXTT4=
EXTT5=
EXTT6=
EXTT7=
EXTT8=
EXTT9=
EXTT10=
EXTT11=
EXTT12=
EXTT13=
EXTT14=
EXTT15=
EXTT16=
EXTT17=
PLAYORDER=
